<?xml version="1.0" encoding="UTF-8" standalone="no"?>
<svg
   xmlns:dc="http://purl.org/dc/elements/1.1/"
   xmlns:cc="http://creativecommons.org/ns#"
   xmlns:rdf="http://www.w3.org/1999/02/22-rdf-syntax-ns#"
   xmlns:svg="http://www.w3.org/2000/svg"
   xmlns="http://www.w3.org/2000/svg"
   xmlns:xlink="http://www.w3.org/1999/xlink"
   xmlns:sodipodi="http://sodipodi.sourceforge.net/DTD/sodipodi-0.dtd"
   xmlns:inkscape="http://www.inkscape.org/namespaces/inkscape"
   width="691.37128"
   height="600"
   viewBox="0 0 843.47296 732"
   id="svg2"
   version="1.1"
   inkscape:version="0.91 r13725"
   sodipodi:docname="BelarusStub (1).svg">
  <metadata
     id="metadata26">
    <rdf:RDF>
      <cc:Work
         rdf:about="">
        <dc:format>image/svg+xml</dc:format>
        <dc:type
           rdf:resource="http://purl.org/dc/dcmitype/StillImage" />
        <dc:title>Flag of Belarus</dc:title>
      </cc:Work>
    </rdf:RDF>
  </metadata>
  <defs
     id="defs24">
    <clipPath
       clipPathUnits="userSpaceOnUse"
       id="clipPath4386">
      <path
         style="fill:#ff8000;fill-opacity:1;stroke:none"
         d="m 436.49199,-2.7811462e-4 -0.38506,0.17230999462 -1.96248,0.67969 -1.06473,0.43077992 -0.85093,1.80932 -1.05197,1.17535 -0.70415,0.78712 -3.23145,0.78286 -0.81901,1.10941 -1.01476,-0.0958 -1.2445,-0.59564 -0.76052,-0.28614 -1.42426,0.46377 -1.04878,0.60416 -0.79562,0.32762 -0.48292,0.73711 -0.43822,1.04348 -0.31591,0.75732 -0.10528,1.9220602 -0.77756,1.54445 -0.74456,1.88801 -1.20407,0.88179 -1.51893,0.79563 -2.46771,0.6616 -1.26897,1.1509 -0.37441,0.034 -3.16762,0.26061 -1.32853,0.4595 0.0404,0.43078 0.43398,0.7499 1.02537,1.21684 -0.47333,0.82434 -0.71265,1.18812 0.7988,0.97753 -0.48503,0.69563 -0.26485,0.3808 -0.37654,0.53821 -0.22125,0.3191 -0.60311,0.26911 -2.54111,1.13387 -1.02006,0.45525 -5.31729,3.64096 -2.74534,2.19755 -0.30527,1.01048 -0.73182,2.43475 -2.4507,3.25909 0.25104,2.57196 0.33823,3.85795 0.15104,1.73591 -1.0126,3.19634 -0.64885,2.04224 -0.34994,0.69884 -0.16593,0.33505 -0.52121,1.04347 -0.93816,0.28613 -0.49673,0.14465 -5.65554,-0.57544 -4.86843,-0.5595 -0.95626,-0.22763 -0.68393,-0.15741 -0.70947,-0.16486 -0.46695,-0.11163 -0.47014,-0.22019 -1.62423,-0.76478 -0.24677,-0.117 -0.24571,-0.22336 -1.45405,-1.32107 -1.41043,0.12444 -0.37014,0.43823 -0.61161,0.74989 -3.34313,1.74335 -2.05182,0.26487 -1.25194,-0.47546 -2.48369,-1.70614 -2.77725,-3.0687 -1.87312,-0.93603 -0.9137,-1.67634 -1.55083,-1.38384 -3.78773,0.24038 -1.28066,1.03071 -1.76464,1.63167 -1.27322,0.73819 -1.56785,-0.48078 -1.8859,-0.33186 -0.29464,0.0212 -1.59869,0.10321 -1.26577,0.28187 -1.12111,1.0392 -0.97431,1.79654 -4.14302,3.10592 -1.28065,1.49021 -1.46149,2.99849 -1.6338,4.19831 -0.60205,2.17415 -0.0638,0.23189 -0.41164,0.42227 -0.65947,0.67863 -0.31486,0.32336 -0.20955,0.21592 -2.20392,0.42228 -1.89972,1.03069 -0.95943,1.19665 -2.04651,0.42653 -2.77725,-0.47652 -4.10578,-1.86357 -2.97721,-0.63714 -0.61587,0.43079 -1.28599,0.9073 -2.30815,3.31548 0.87326,2.05501 0.17339,0.40632 -0.11383,1.07539 -0.2372,2.24859 -0.18508,2.56771 -0.0309,3.02615 0.12339,1.11047 0.1606,1.46148 -0.79137,1.36577 -0.16806,0.29037 -1.58593,1.49446 -0.0553,0.20317 -0.4329,1.60721 -0.3372,0.37654 -1.40723,1.57317 -2.98679,0.69139 -2.04758,0.92752 -0.011,1.06048 1.30832,0.57544 1.63168,3.382478 0.0489,0.66693 0.15103,2.03266 0.0681,0.91051 0.14785,1.98907 0.23933,7.41593 0.13935,1.81675 -1.10198,0.74669 -2.04331,1.34023 -0.38931,0.34038 -1.49871,1.53168 -0.81796,0.7414 -0.32124,0.43822 -0.32122,0.47226 -0.18296,0.4308 -0.0734,0.52225 0.31166,0.44676 0.19359,0.16593 0.46696,0.39675 0.29463,0.24888 0.56481,0.15318 1.5987,0.1159 0.74244,0.0543 0.93816,-0.14573 1.086,0.76585 1.08601,0.61693 0.62545,-0.29782 0.94028,-0.1404 0.30741,0.45524 0.37228,0.3691 0.24571,0.24358 0.28081,-0.21487 0.50418,-0.38611 0.83072,-0.62863 0.74458,-0.56269 0.7701,0.91476 0.3074,-0.26059 0.8669,-0.74139 0.32653,-0.27762 0.26486,-0.0915 0.90413,-0.1159 0.47971,-0.90201 1.39022,1.22536 2.01992,0.92752 0.66265,0.16913 0.58185,0.14997 0.9307,0.46376 1.72421,-0.58394 2.64749,0.33079 0.7818,0.0128 0.52119,0.60417 0.40207,0.46377 0.5361,-0.21487 0.55948,-0.22444 0.92859,1.27215 0.29996,0.41058 0.68713,0.11907 0.67437,0.1159 0.5063,0.0872 0.25316,0.64141 0.14892,0.3776 0.1989,0.50418 0.46907,0.31166 0.22338,0.14891 0.23613,0.15636 0.55313,1.11366 0.20422,0.41058 -1.46362,-0.0203 -0.25102,-0.005 -1.66572,0.69243 -0.28719,0.11908 -0.87008,0.36484 -4.54507,1.9093 -2.19756,1.18386 -1.12643,3.01445 -0.3542,3.47395 -1.25832,1.19771 -2.07096,0.11065 -0.26487,0.0171 -0.94347,0.89454 0.13935,1.36577 1.04665,1.50829 0.32974,0.4712 0.13614,1.66464 -1.41575,1.49872 -1.7125,0.13721 -0.93179,0.51802 -0.94347,0.52119 -1.86993,0.58395 -1.07964,-0.92007 -0.92751,0.0586 -1.41362,0.0915 -0.67651,0.0404 -1.18174,0.0755 -2.62195,-1.99226 -2.33902,0.89134 -1.41787,1.95398 -1.26152,2.26031 -1.85398,-1.22536 -0.92326,-1.06793 -3.40907,-1.086 -2.17309,-0.61587 -0.41164,0.16593 -3.63882,1.47 -2.18797,2.10714 -3.43354,2.70386 -0.007,1.36256 1.23492,1.37001 -0.2489,1.39553 -0.0723,0.41803 -0.18296,0.22763 -0.23613,0.29782 -0.65841,0.82435 -0.48397,0.60948 -0.36591,1.93801 -0.43291,2.29327 -1.33916,3.35802 -0.22976,0.5712 -0.49886,1.28172 -4.5121,2.57515 -1.55084,0.65949 -0.2021,0.1255 -1.78483,1.10942 -2.47092,0.98814 -0.48397,1.31789 -1.35617,1.56466 -1.11474,1.31789 -1.59869,0.32975 -1.2594,-0.32975 -1.98587,-1.39979 -0.91157,-1.24237 -0.54566,-0.36271 -1.08069,-0.15317 -1.24131,1.36256 -2.16776,0.90201 -3.09316,0.9073 -3.69732,2.20712 -0.94775,1.58913 -0.0681,0.77436 -0.1989,2.26987 -4.38977,4.95991 -1.4317,1.92206 -0.78712,1.06367 -1.30088,2.08266 -0.31698,0.50525 -0.53289,0.85732 -0.67011,2.2486 -0.26274,3.8388 1.08176,1.85078 0.40632,2.24861 0.002,2.38474 0.004,1.2828 0,0.3063 -0.67011,1.4541 -0.93817,1.855 -0.26166,3.3123 0.27444,3.7069 0.52119,1.6147 0.22657,0.6999 0.0638,0.1979 0.0744,0.6296 0.46802,3.8674 0.3776,0.8904 0.18295,0.4308 0.11383,0.2691 -0.0701,0.2191 -0.117,0.3564 -0.17551,0.5381 -0.47227,0.1404 -0.61904,0.1416 -0.37974,0.2063 -0.82328,0.5137 -0.61906,0.4479 -0.44568,0.3755 -0.30845,0.3776 -0.58291,0.853 -0.33824,0.8531 -0.23295,0.9849 -0.37654,0.9903 -1.02751,1.6519 -0.22655,0.3649 -1.46361,3.4452 -2.26244,4.3758 -1.59552,2.2573 -0.0521,0.3307 -0.21061,1.3913 0.002,0.3766 0.002,0.6797 0.74776,0.8115 0.5946,0.6414 -0.0755,1.321 -0.0511,0.9318 -0.53185,1.0605 -1.86781,0.401 -0.26272,1.3254 -0.12658,1.855 -1.19132,2.6539 -1.35617,1.2679 -0.63607,0.5915 -0.92328,1.9911 0.004,1.5083 0.004,0.6126 0.4042,0.9233 1.19344,0.6541 1.60934,0.9233 3.46439,-0.013 2.3975,-0.8031 1.72422,0.083 0.93923,0.045 1.20088,1.0563 0.42654,1.2626 0.21698,0.6372 0.56482,1.6731 0.78498,1.5657 0.22125,0.07 1.39979,0.4362 1.45191,0.7658 0.34464,1.2711 0.68181,1.1881 1.62103,0.5053 1.19451,0.5094 0.17019,0.8446 -0.34144,0.6827 -1.78804,0.4277 -0.68182,0.8477 0.51377,1.1882 1.11153,2.373 -0.17125,1.1063 -0.25315,1.4402 0.34143,1.6147 -0.16806,1.1891 -1.10621,0.088 -1.61679,-0.6467 -1.70294,0.3106 -2.37944,1.3626 -1.61252,1.3615 -1.61252,1.0233 -1.27322,0.6828 -0.85094,0.087 -1.02538,-0.9316 -0.67969,-0.4222 -1.61678,-0.3309 -1.3615,0.087 -2.81128,-0.919 -1.5785,-0.1617 -0.80414,-0.083 -1.09558,-2.1613 -0.19253,-0.3809 -0.34569,-1.1009 0.31485,-0.6382 0.27443,-0.5541 2.29434,-0.8573 1.08707,-0.7829 0.69671,-0.5 0.25102,-1.6115 -0.0926,-1.5285 -0.25954,-0.6786 0.59461,-0.7659 0.42121,-0.7668 -0.0893,-1.2711 -2.66025,-4.1483 -0.94453,-1.0967 -1.45725,-1.5243 -0.52119,-1.6944 -0.0904,-1.3573 -0.60099,-0.4222 -0.93815,0.2606 -0.58929,1.4445 -0.4244,0.8531 -1.27854,0.091 -1.36575,-0.078 -1.10834,0.091 -1.61678,0.6871 -1.33704,1.0222 -1.12856,0.8616 -0.34995,0.1532 -2.05715,0.9074 -1.56783,0.302 -2.23904,0.3808 -1.45191,0.012 -1.45086,-0.3277 -0.85413,-0.078 -0.91689,0.1616 -1.63486,0.8776 -1.62102,0.4553 -0.60205,0.9158 -1.50084,2.5922 -2.45496,3.7472 -1.93588,2.9561 -0.71159,1.0849 -3.46333,3.3708 -3.76327,3.6813 -1.96567,0.936 -2.40388,-0.3521 -0.48931,-0.071 -0.60203,-0.4765 -0.32441,-0.2564 -0.83925,-0.6668 -0.68925,-0.5425 -0.67225,-0.6053 -1.32533,-1.1923 -1.52319,0.017 -0.60309,0.3893 -0.60205,0.385 -1.50616,1.0808 -3.16868,1.8635 -3.18464,0.3478 -1.65931,0.936 -0.89881,0.9233 -1.01901,3.2006 -0.21167,1.8264 -0.19145,1.6678 0.95198,2.7209 1.17643,1.5243 0.67649,0.8774 0.12764,0.8392 0.27762,2.7486 -1.06579,3.624 -1.54978,2.3049 -2.61663,2.1412 -1.25939,0.6594 -0.77542,0.9882 -2.03481,-1.153 -1.45298,-0.3297 -0.38823,0.9882 -0.29038,0.8243 -1.35619,-0.4946 -0.0968,-1.6466 1.26046,-2.4709 0.67756,-2.1412 -0.0967,-0.8233 -0.48398,-1.6477 -0.37122,-0.4286 -0.70627,-0.037 -1.10092,-0.062 -0.31695,-0.017 -0.24784,0.099 -4.11642,1.6445 -6.14059,4.0537 -3.8824,2.956 -1.63273,1.806 -2.74853,3.0432 -0.36378,0.4021 -2.67939,2.1773 -4.22065,0.5383 -6.062936,-0.6287 -0.84775,-0.1957 -5.23114,-1.1871 -3.06231,-1.603 -0.30741,-0.418 -1.87737,-2.5676 -2.76662,-1.7551 -1.66358,0.042 -0.80095,0.8031 -1.05515,0.2563 -1.68806,0.4106 -2.17521,0.3882 -0.72862,0.133 -2.72725,0.8232 -2.77406,0.385 -0.22975,0.029 -1.51892,-1.0263 -1.5636,-1.0605 -2.32201,-1.9135 -1.51466,0.042 0.19146,1.5115 -0.67224,0.4765 -0.66479,0.4712 -0.61162,-0.049 -2.11777,-0.1776 -0.35207,-0.1244 -0.5127,-0.183 -1.12429,-0.3968 -0.45739,-0.1415 -0.21379,0.2946 -0.80734,1.1008 -1.17641,1.2468 -1.19557,0.4923 -0.44994,0.3607 -0.0372,0.2234 1.14239,1.2179 0.66054,0.9317 0.28507,0.4053 -0.2638,1.3754 -1.49552,0.6499 -1.67741,-0.5595 -1.89973,-2.9815 -2.00182,-1.1551 -4.84823,-0.1575 -0.22443,0.1617 -1.55084,1.1051 -2.68471,1.2966 -1.17322,-0.054 -0.20635,-0.012 -0.59034,-0.029 -0.94242,-1.7508 -0.18083,-0.3362 -2.01351,-1.4572 -0.41484,-0.2064 -1.58594,-0.7913 -3.85475,-2.5135 -0.45099,-0.2935 0.44142,1.1137 0.15849,0.3978 1.27109,3.391 0.25528,1.8092 0.0415,0.3064 0.78711,5.5524 0.48931,1.2137 0.78497,2.3676 0.0681,0.282 0.37655,1.5816 0.32229,4.0706 0.10211,5.3046 0.16274,1.0308 0.19785,0.3063 0.81584,1.2796 1.85183,1.623 1.08072,1.7806 0.005,2.2646 -0.20423,1.6286 -0.0681,1.9411 -0.0245,1.603 -0.0191,1.1839 0.002,0.9893 0.0149,3.6726 0.38505,3.9793 0.17764,1.8306 0,0.2978 -0.002,1.7062 0.59353,0.5669 1.04027,0.5467 0.49247,1.4743 0.46483,2.6422 0.85732,4.2727 0.0457,0.2318 0.52333,3.0889 0.083,0.4926 0.0926,0.5382 1.65081,3.9676 0.66799,1.0147 0.29038,1.1552 0.82434,2.0496 1.38597,4.9024 0.3925,1.387 2.30391,6.9277 2.72833,8.6583 1.9114,4.741 0.12339,0.2978 0.085,0.2116 1.48702,3.3207 1.04772,1.1393 2.77192,1.4731 0.42335,0.3564 0.20742,0.8487 -0.3925,0.8904 -0.1181,1.3658 0.58609,2.1454 0.57544,0.9818 2.75387,2.2931 0.95304,2.0051 0.10638,0.8201 -0.42548,0.786 0.20636,0.986 -0.22869,0.5171 -1.18813,1.2008 -0.50205,1.069 -0.51162,1.0924 -0.0638,0.4765 0.34675,1.3286 -0.46056,0.618 -0.0415,0.2435 -0.14893,0.883 -0.69458,0.5498 -0.22868,0.5138 1.04773,1.8667 0.14465,1.1593 0.56906,0.4394 1.03284,0.2978 0.37333,0.6095 -0.25953,1.0264 0.80414,0.5053 0.2957,0.72 0.37229,0.9116 1.06686,2.1699 0.14891,1.1967 0.81051,6.5501 0.54036,2.6592 -1.30301,2.0241 -0.0744,0.6797 -0.54141,4.9397 -0.0967,0.8776 -0.22656,5.8139 -0.13722,3.5357 -0.0149,0.3723 -0.0681,3.2677 -0.0947,4.63 -0.10528,5.1089 -0.0712,10.3409 -20.70971,6.1343 -0.28719,0.079 -3.54415,0.9765 -0.47228,0.1488 -6.72027,2.1541 -1.61253,0.4425 -1.8508,0.8413 -2.32731,1.6305 -0.55418,0.2935 -3.13783,1.6489 -4.13024,3.7717 -3.56117,5.2174 -0.95199,1.3998 -1.28704,1.7922 -0.63714,0.8913 -2.24648,3.709 -1.54871,2.1338 -0.99666,3.022 -0.47227,1.437 -0.68713,2.339 -0.54035,1.8518 -1.473184,4.2026 -0.7116,1.2168 -2.69428,4.6174 -2.32419,5.6005 0.9254,0.5447 0.25102,0.2361 1.51574,0.5754 0.20422,0.4064 -0.44036,0.9977 0.01,0.5126 0.59885,0.6011 -0.0223,0.5797 -0.79669,1.2093 -0.33506,1.2371 0.55099,1.6615 0.69883,0.7361 1.37001,0.043 2.168834,0.7775 1.66996,0.3106 1.10835,-0.054 1.08601,-0.5255 1.05835,-0.1245 0.33506,0.4722 -0.80307,0.866 0.0723,0.4765 2.02416,-0.034 1.44022,0.2817 0.41164,-0.8614 0.29038,-0.1404 0.60097,0.8775 -0.12444,0.3434 0.55736,0.1575 0.3542,-0.3809 0.42335,0.029 0.0191,1.2264 0.56055,0.401 0.7818,-0.1159 0.67437,-0.6244 0.16594,0.2022 -0.12127,0.5136 0.69139,0.3649 0.0713,0.3766 -0.47334,1.1679 0.27017,0.5754 0.68714,0.1575 0.67436,-0.6585 0.2287,0 0.44142,1.2542 0.68926,0.1616 1.59976,-1.9379 1.17961,0.2573 -0.0362,0.2979 -0.0521,0.418 0.53184,0.6052 0.74776,-0.046 0.83499,-0.8988 0.58183,0.062 0.26804,0.029 0.82328,0.534 0.0415,0.6456 -1.07857,-0.088 0.0106,0.617 -0.61161,0.5179 0.21699,1.636 0.46695,0.6744 0.49248,0.3021 0.58714,0.026 0.45314,-0.2818 0.26271,0.202 0.10529,0.5766 -0.27974,0.8934 0.26272,0.1659 0.42122,-0.1074 0.33931,0.9159 0.518,-0.074 0.91158,-0.084 0.33612,0.6797 0.12551,0.82 0.60735,0.2852 0.35314,0.1903 0.50205,0.2702 1.07857,0.2191 1.01368,0.1208 0.65522,0.1617 0.79349,0.7689 0.26486,0.3361 0.43718,0.8733 0.13295,0.2734 0.56268,0.8701 0.53609,0.5796 0.18509,0.1405 0.49779,0.368 0.83286,0.6254 0.52544,0.299 0.18935,0.2563 0.0543,0.6998 0.0415,0.5182 0.14891,1.9082 0.17019,0.6499 -0.0904,0.6467 0.43398,0.8478 0.28931,2.7623 -0.28399,0.4479 0.23081,0.5041 0.95199,0.9115 0.43398,0.8817 0.91263,0.298 0.36378,0.5764 -0.53823,1.2339 -0.86689,0.7243 -0.55098,0.1447 -0.34996,0.6542 0.40314,1.1508 -0.12445,0.6181 -0.35314,0.3797 -0.35739,-0.2691 -0.77968,0.079 -0.89134,1.5476 -0.93924,-0.057 -0.29036,0.2064 0.2308,0.3404 0.81371,0.3309 0.23401,0.4051 0.30421,1.1563 -0.12232,0.6499 -0.71054,0.149 -0.4361,1.5731 -0.61905,-0.2649 -0.54993,0.041 -0.23081,0.3681 -0.24678,0.3904 0.82329,1.1135 -0.28188,0.7903 0.3308,0.5766 0.87859,0.2594 0.45844,0.4351 0.005,0.4105 -1.02325,1.0723 0.6382,1.8349 -0.38931,0.074 -0.97752,-0.5011 -0.3893,0 -0.35313,0.2766 -0.0872,0.7871 0.30847,1.4285 0.39462,0.4723 0.0394,0.4095 -0.24359,1.2669 -0.869,0.4892 -0.25422,0.4138 0.1638,0.2032 0.64991,0.09 -0.41377,0.7127 -0.12764,0.2191 1.49339,0.1829 0.42441,0.4383 0.0415,0.6138 0.69883,1.6304 0.40951,1.8009 -0.66268,1.4083 -0.11699,1.0934 -0.0606,0.2064 -0.55098,-0.029 -0.568,1.201 -0.48183,0.2818 -0.6797,-0.1287 -0.7084,1.3041 -0.20742,0.3807 -1.50722,0.8744 -1.32958,-0.3892 -1.27217,1.6891 -0.80094,0.352 -0.34888,0.551 -0.13616,1.8466 -0.19252,0.2074 0.55736,0.6371 -0.0255,0.4436 0.42015,0.1979 0.41271,-0.6861 0.66479,1.4241 0.0329,0.2734 -0.25315,0.3095 0.29996,0.6095 -0.38186,0.4138 0.1989,0.1574 0.48505,0.3808 0.005,0.4095 -0.81691,1.7519 0.16593,0.4063 0.74564,0.1277 0.1319,0.269 -0.28826,0.149 -0.19146,0.095 -0.117,0.9564 0.23826,1.0892 -0.21912,0.4137 -0.70627,0.2159 -0.41164,0.6542 0.20209,0.7127 -0.2723,0.402 -0.29783,0.3926 0.91794,1.0764 -0.43822,1.1009 0.30528,0.9488 0.0798,1.2965 -0.39143,2.0529 0.16913,0.7169 0.52758,0.8074 0.27443,1.4986 0.84774,0.7372 0.3457,1.8753 0.78925,1.3541 -0.55844,0.9902 -0.19678,0.3478 0.18296,1.7052 0.58715,0.6424 0.8052,0.3266 0.71266,-0.5542 0.76903,0.7042 0.90093,0.059 0.29463,0.5083 -0.0904,0.4425 0.72329,1.2881 -0.33505,1.5414 0.42866,0.9806 0.29144,0.2978 10e-4,0 3.28035,-1.1562 1.32533,-1.6392 0.46484,-2.9229 -1.57849,-2.423 -1.29343,-1.1955 -0.67969,-0.6287 -0.5914,-1.4381 1.57105,-2.6667 0.24145,-1.171 -1.02326,-2.1497 -0.44567,-1.1467 0.37759,-1.1752 3.38035,-2.0008 1.91888,-1.121 2.54324,-1.4871 2.46452,-0.3681 1.87952,0.9233 1.06791,2.4975 1.64764,1.8125 1.25938,-1.8125 1.1626,-0.4946 1.66146,-0.6489 0.68394,-0.3371 0.49674,0.093 0.91369,0.3309 1.30513,0.4754 1.38171,0.8573 0.85413,0.534 0.17763,1.5943 -0.63288,2.1987 0.46056,1.8752 1.40086,1.1264 2.62516,0.6499 1.61995,0.2723 0.50739,0.084 19.56944,-10.9558 4.51421,-6.4628 5.703406,-6.464 2.85173,-6.4629 1.18811,-8.4838 0.23827,-7.2724 0.47545,-4.444 4.03983,-1.2125 6.17887,0.8084 6.65435,0 6.1778,0.4041 2.85171,2.8273 4.75355,-1.2116 2.13905,-2.0208 20.2672,1.1168 0.25635,-0.012 2.20926,-0.3181 2.05394,-1.9125 3.84093,-2.9528 0.93071,-0.634 3.19314,-2.173 3.31548,-0.7617 1.71676,0.2234 0.36271,0.049 1.80399,0.5638 0.64884,-0.054 2.59324,-0.2158 1.7008,-0.9107 1.51467,0.3309 1.32214,0.9562 2.30925,1.3627 1.3232,1.2306 1.32747,1.9242 1.31256,0.7839 1.32534,0.7861 1.97099,0.3308 1.70932,0.2649 1.18174,-0.2851 0.78605,-0.2787 2.03161,-0.8403 1.57318,-0.2851 1.9763,0.7499 0.98071,0.1734 0.75839,0.054 0.54035,0.023 1.79229,0.078 2.105,0.6787 4.00579,0.8158 3.21761,0.537 2.69215,-0.6944 3.28038,-0.5585 2.03587,-0.5552 0.65521,-0.9689 0.45739,-1.8626 1.51041,-0.9691 1.24662,0.55 0.59246,1.036 0.78925,1.1052 1.25727,0.2776 1.23917,0.2723 1.64125,0.4138 1.31364,0.4851 1.08601,-0.2723 0.55523,-0.1415 1.37853,0.1372 1.56678,0.7573 1.51999,0.5585 1.04985,-0.2064 1.05197,-0.551 1.24982,-1.5157 1.26789,0.2362 0.86582,1.2752 0.085,0.2554 2.00609,0.5221 3.2942,-1.153 0.77434,-0.1648 2.1316,1.8124 1.16367,2.1411 1.35618,0.8244 2.51877,0.6584 0.48504,1.4828 3.39098,1.153 3.68244,0.6596 1.74335,-0.1649 0.87222,-0.8243 0.87221,0.4935 2.03481,1.153 3.10061,1.153 2.03479,-0.4935 1.64657,-1.3179 1.06579,0.4945 1.93802,3.2943 2.90702,2.7996 2.51877,2.306 1.25939,0.988 0.67757,-0.3296 0.24357,0 1.16792,-0.8978 1.14663,-0.3936 5.46834,-2.357 0.22657,-0.1025 1.20087,-0.5476 2.91021,0.8668 0.18509,0.09 0.67969,0.3351 2.05182,0.1616 0.39462,0.033 0.78606,0.1745 0.59034,0.5052 2.45707,2.1113 1.00306,0.634 0.87752,0.5552 0.69139,1.5073 0.53609,0.057 1.19876,0.1287 1.82631,-1.0563 1.26578,-0.4797 1.5668,1.018 4.04832,3.8835 2.08693,0.7254 0.42334,0.1457 2.13374,-0.3819 0.86051,-0.05 1.42745,-0.082 0.97857,-2.3114 1.5636,-2.004 1.34236,0.1037 1.2764,-0.062 0.96475,-0.3191 1.83909,-0.1362 1.49552,0.083 0.73713,0.04 1.19557,0.1873 1.18919,0.4425 0.47227,0.5126 1.92205,-0.385 2.6379,-0.2031 1.59551,0.1999 0.53503,1.1892 0.19573,2.6125 -0.10748,6.2276 -0.0149,5.4738 0.29996,1.1019 1.74122,0.6212 0.95838,-0.1489 1.52956,-0.8946 0.87646,-0.067 1.18812,0.3564 0.14467,0.9317 -0.6499,2.07 -0.11272,0.3563 -0.62758,1.404 -0.007,0.5137 0.49355,1.4361 0.35314,0.2117 0.6116,0.042 0.77223,0.017 0.80307,0.1478 0.80201,0.2852 0.54886,0.079 1.5753,-0.054 0.6531,-0.1701 3.35162,-0.5169 1.05836,0.1892 1.08175,0.1947 2.23583,-0.3723 1.64232,-0.969 0.74458,-0.2233 1.23066,-0.282 1.54658,0 1.06367,-0.012 0.54141,0.202 0.34781,0.5298 -0.01,0.6138 -0.30525,0.7073 -0.24465,0.079 -0.27124,0.082 0.083,0.4479 0.9424,-0.1208 0.47229,-0.2212 0.37016,-0.1723 0.62117,-0.3605 1.04027,-0.5585 0.56055,-0.601 0.23615,-0.8275 0.14785,-0.903 0.5265,-0.534 0.45526,-0.2277 0.74564,-0.1871 0.41908,0.1073 0.44568,0.3191 0.37761,0.3818 0.44035,0.5872 0.45845,0.5009 0.59991,0.4064 2.5007,1.9996 0.55098,0.2691 0.72117,-0.2371 0.89666,-0.9009 1.06688,0.3585 0.27549,0.096 1.48702,1.052 1.61039,0.042 0.29676,0.012 1.44447,-0.468 1.0158,0.786 0.36059,1.5243 0.0192,2.5262 -0.19253,1.3445 -0.2191,0.7095 -0.55737,1.7966 -0.78393,0.6562 -2.62089,2.1965 -0.90624,1.4084 0.44887,1.1922 -0.74032,1.1595 0.19891,1.6061 0.21593,0.2776 0.39781,0.5797 3.30695,1.0978 1.537,2.0624 1.08601,1.0434 1.13495,-1.0647 0.62118,-2.6793 0.98922,-1.4041 1.80504,-2.3933 0.31592,-0.2894 1.55403,-1.4241 1.537,-1.135 0.0361,-1.3455 -0.75308,-1.7062 0.23933,-3.1101 0.86477,-2.6699 1.90397,-2.8911 2.08267,-0.5295 1.72422,1.2539 0.29781,0.216 0.6329,0.4594 0.26059,2.5008 0.35528,0.3403 0.57544,0.2192 0.51163,0.1159 0.51057,0.183 1.03069,-0.012 0.87646,-0.2478 0.81904,-0.5882 0.52332,-0.3277 0.42334,-0.2276 0.42867,-0.3637 0.68287,-0.2862 0.86371,0.1947 0.40737,0.5223 0.083,0.6127 0.0192,0.4797 -0.50204,0.7658 -0.29995,0.3691 -0.39889,0.567 -0.23827,0.5063 -0.0468,0.6073 0.3925,1.102 0.59672,0.6296 0.69671,0.099 0.96261,-0.2477 1.12964,-0.4522 1.11047,-0.7615 1.13493,-1.5605 0.85733,-0.6839 0.919,0.1159 1.24982,0.2191 0.60842,-0.7786 0.79882,-1.5689 0.71798,-1.5732 0.80945,-0.2787 0.37442,-0.1276 0.46482,0.054 0.62118,0.071 0.69457,-0.7743 1.52425,-3.3207 1.05942,-1.7392 2.64535,-1.42 2.30817,-1.4285 1.48489,-1.8136 1.45084,-0.7456 0.55525,0.9945 -0.29146,1.3212 -1.30406,4.0366 -0.19465,0.8775 0.47228,0.9935 1.97842,1.1349 1.40086,0.7573 3.22187,4.1121 1.53913,1.652 1.26896,2.1741 0.8435,2.4263 0.57224,0.3765 0.82756,0.2989 3.10166,-2.6379 0.9371,-0.8904 1.57422,-1.4986 3.04743,-0.9488 1.84333,-0.021 1.97844,0.9637 4.70569,3.0028 0.41908,0.012 0.80202,-0.029 0.32868,-0.079 0.93815,-0.2224 2.63578,-1.0478 1.74655,0.3341 0.3191,0.4562 0.23082,0.5426 -0.70096,0.8615 -1.28598,0.8361 -1.41788,2.1571 -0.032,0.8946 -0.0277,0.7041 0.6999,1.536 1.43383,4.228 0.49247,2.5965 0.20423,3.5569 0.64778,0.5584 2.04118,-0.9806 1.75613,-2.3231 0.9573,-1.0233 0.88924,0.836 0.2489,2.3136 0.23825,2.4975 1.59552,2.022 1.00623,-0.1373 1.32534,-1.8965 0.0798,-2.1241 -0.16061,-2.3146 -1.14238,-2.9773 0.0798,-2.1284 2.97722,-7.8593 0.56375,-0.7202 0.57971,-0.7403 2.65811,-1.57 2.41666,-1.7593 1.73805,-1.6105 1.8497,-0.095 2.65281,-0.1819 0.4574,-0.034 2.1167,1.5157 0.65309,2.5178 0.75203,0.034 0.82861,-1.4903 4.13129,-4.7163 0.79882,-0.9104 1.07639,-2.1954 0.16595,-0.3936 0.59247,-1.4158 1.49553,-1.2924 1.00304,0.096 0.73396,0.065 2.71766,0.2904 1.1179,0.4563 2.59753,1.3297 2.07945,0.9806 0.10956,0.9689 -0.27977,1.1882 -0.29463,0.4542 -0.15103,0.2361 -0.27339,0.5765 -0.16807,0.9446 -0.0958,0.7775 -0.16484,0.9489 -0.17765,1.1848 -0.0766,1.1222 0.032,0.8159 0.19786,0.6574 0.15314,0.2126 0.36803,0.078 0.70631,0.4148 0.15313,0.9935 -0.251,1.453 -0.15848,0.7744 0.31908,2.4687 -0.10004,0.8488 -0.0244,0.6456 0.0223,1.0563 0.0872,0.9934 0.16061,0.8244 0.33187,0.5595 0.31167,0.2181 0.32121,0.012 0.69883,0.2021 0.5329,0.2999 0.67225,0.9149 0.30209,1.2412 0.1808,1.0978 0.005,0.2574 0.0192,0.7329 0.0244,0.9893 0.0489,1.1593 -0.16382,0.8776 0.0171,1.1932 0.0564,0.9882 -0.066,0.8159 0.3414,1.1063 0.31381,1.7507 0.79991,0.8574 0.94025,0.5169 1.27109,0.2989 1.51259,-0.1001 0.61904,-0.2775 0.69137,-0.4096 0.19998,-0.068 0.4531,-0.1765 0.5574,-0.3149 1.29342,-0.9934 1.70079,-1.7136 1.4604,-1.4125 1.90507,-0.3808 1.3328,0.5509 1.39766,0.7946 0.62754,0.485 1.26473,0.9776 1.2785,0.071 0.9084,-0.034 1.17644,-0.9808 0.65522,-1.0892 0.0638,-0.986 0.21587,-3.3823 0.27763,-2.5795 0.84779,-1.9593 0.5318,-0.054 0.67226,0.199 1.16152,0.9434 1.18384,0.5468 0.86479,-0.6744 0.75519,-1.5658 1.70721,-2.4762 1.28384,-1.5317 2.06032,-0.3691 2.47735,-1.1455 2.52618,-0.5798 1.1222,0.2234 0.48824,0.8275 0.37866,2.1699 0.78074,3.3538 1.70503,2.1827 1.56573,1.855 1.33917,0.3968 0.49461,-0.7744 0.26058,-0.7073 1.00092,-0.3446 3.02619,1.3796 1.06686,0.1818 0.35738,0.062 0.53821,-0.2074 0.30951,-1.5892 0.718,-2.2028 1.36684,-1.5243 1.99541,-0.3893 0.21806,-0.042 2.07738,-0.038 0.34141,-0.029 0.49886,0.4351 0.10955,0.3809 0.11273,0.3477 0.24256,0.2521 0.19355,0.1172 0.24572,0.1446 0.51056,0.029 0.29785,-0.1195 0.54034,-0.5468 0.23397,-0.2649 0.35318,-0.5212 0.44564,-0.5584 2.27735,-1.4041 1.76571,-0.5584 0.19251,-0.059 1.39555,-0.1562 0.75307,0.2892 1.22746,0.074 2.8719,-0.3937 1.32748,-0.3275 1.56571,-0.4712 0.77759,-0.1171 2.05821,0.3776 2.69108,1.3944 1.76249,1.4988 0.97963,0.3893 0.81586,0.5424 2.16991,2.4263 0.8945,0.9946 1.05941,1.1753 2.08485,2.506 2.04115,3.2378 0.46057,1.337 0.26806,0.6712 0.44995,1.503 -0.15532,1.3786 -0.68713,1.2594 -0.77436,1.4188 -0.19464,0.7254 0.27229,0.5872 0.34359,0.6797 2.34326,3.258 1.07221,1.036 0.95195,0.919 0.87861,0.852 0.60206,0.2032 0.83498,0.1362 1.72525,-0.6201 1.07432,-0.012 0.48715,0.8488 0.0978,0.9073 -0.51906,1.0264 -0.083,1.3828 1.25513,0.8202 1.00626,-0.1776 0.90835,-1.0808 1.08391,-0.1702 1.14236,1.3828 0.9084,1.454 0.99346,0 0.78072,0.9892 0.61802,0.3276 0.57756,0.2776 0.8988,-0.9147 0.32126,-1.0721 0.44564,-1.4914 0.10956,-1.7934 -0.83072,-1.4445 -0.78178,-1.0349 0.12656,-0.8084 0.75199,0.216 1.13281,0.1542 1.14241,-0.9787 1.90502,-1.3413 0.32442,-0.2989 0.75732,-0.7656 0.18723,-0.021 1.20406,-0.1287 0.32654,-0.301 0.21594,-0.1916 0.64355,-0.5669 0.52118,-0.4563 -0.0192,-0.5211 -0.61372,-0.4223 -0.18826,-0.054 -0.65205,-0.1862 -0.29251,-0.083 -0.22443,-1.3243 0.15636,-0.7797 0.0681,-0.3477 0.73288,-0.6829 0.19785,-0.4394 0.0872,-0.1945 0.0586,-1.0148 -0.83074,-0.6776 -0.39674,-0.7627 -0.67012,-1.5986 -0.15315,-0.5755 -0.30639,-1.1552 -0.22655,-0.852 -0.61904,-0.4233 -0.70842,-0.4841 -1.22111,0.4224 -0.351,0.1208 -0.42756,-0.2404 -0.24147,-0.132 0.0287,-0.4604 0.0713,-1.1679 -0.18294,-1.2552 -0.0331,-0.2308 0.28935,-0.9615 0.19252,-0.087 0.41907,-0.4266 1.00839,-0.013 0.59458,0.013 0.31162,0.012 0.18724,-0.4053 0.0989,-0.2117 -0.083,-0.6657 -0.0415,-0.3234 -0.41379,-0.4766 c -0.46782,-0.3441 -0.47545,-0.335 -0.47545,-0.335 l -0.67224,-0.2691 -0.91794,-0.3021 -0.28295,-0.2531 -0.032,-0.3766 0.0532,-2.1699 -0.0213,-0.1937 -0.0298,-0.2605 -0.0489,-0.4351 -1.93377,-1.9465 0.0734,-0.3266 1.08599,-1.0275 0.22873,-0.4136 0.38079,-1.3296 0.37228,-0.3181 -0.0926,-0.6711 -0.18082,-0.6212 -0.54247,-0.4723 -0.76794,0.062 -1.17536,0.6032 -0.70951,0.3649 -0.18506,-0.099 -0.12127,-0.2776 -0.45309,-1.0317 -0.30743,-0.4712 -0.34038,-0.5266 -0.15423,-1.052 0.12552,-0.7116 0.56694,-0.3648 1.04241,-0.684 0.2319,-0.152 -0.0904,-0.2405 -0.1192,-0.2904 -0.31168,-0.1061 -0.29251,-0.1 -0.57008,-0.1208 -0.57226,-0.1196 -0.79457,-0.5478 -0.39249,-0.268 -0.47976,-1.0148 0.28086,-0.7946 0.81794,-0.7626 0.57973,-0.318 0.21908,-0.1208 0.49249,-0.5883 0.12127,-0.5956 -0.37015,-0.2701 0.0287,-0.4881 0.40953,-0.3809 0.77008,0.054 0.284,0.1037 0.54672,0.1988 0.5744,-0.5307 0.051,-0.7988 -0.96683,-0.9977 0.0489,-0.7797 0.0122,-0.1937 1.25725,-0.4553 0.66055,-0.7126 0.2308,-0.369 0.22443,-0.3597 -0.6435,-1.238 -0.16807,-0.4223 0.16595,-1.2009 -0.51377,-1.6646 -0.86479,-0.9233 0.0383,-0.6489 0.80204,-1.3541 0.62542,-0.1745 2.0391,0.2489 1.21789,0.1947 0.55734,-0.7211 0.53289,-0.2904 -0.0755,-0.2436 -0.26806,-0.8657 0.29997,-1.4945 0.28396,-1.2828 0.59781,-0.029 0.50946,-0.8871 0.8765,-1.2828 -0.29677,-1.1967 -0.61691,-0.3233 -0.5531,0.3563 -0.53295,-0.038 -0.22867,-0.037 -0.34251,-0.1159 -0.0329,-0.2191 -0.0809,-0.5137 0.27125,-0.9308 1.42957,-0.4478 0.29251,0.1 0.67227,0.2894 0.29141,-0.1778 0.50952,-0.7753 0.96476,-2.6783 -0.48719,-1.5455 -0.82861,-2.0157 0.11272,-0.485 0.13828,-0.2978 1.06474,-0.7702 1.39979,-0.029 0.685,-0.3935 1.0764,-4.6547 0.29037,-0.3436 0.20958,-0.2116 0.37975,-0.1702 0.67438,-0.567 1.67312,-3.1761 0.20422,-0.3893 0.54782,-0.2394 0.89455,0.1767 1.12324,0.1669 0.19464,0.029 0.84244,0.1244 0.18827,-0.087 0.70624,-0.3277 0.22128,-0.1488 1.2498,-1.3957 0.23827,-0.438 0.48713,-0.9074 -0.26806,-0.9403 -0.38181,-1.3455 -0.55315,-0.8243 0.0437,-0.6542 0.0149,-0.2394 0.28402,-0.167 0.65308,0.045 0.14355,-0.2361 0.19999,-0.3308 0.18511,-0.3064 0.16381,-0.269 0.72862,-0.054 -0.0415,-0.7328 0.69351,0.079 1.1211,0.3478 0.90094,-1.1263 0.47761,0.5764 0.10004,-0.5308 0.0606,-0.3276 0.71158,0.05 0.72758,0.054 0.26163,-0.8455 -0.28718,-0.3479 -0.35421,-0.8945 0.21594,-0.059 0.73288,-0.1979 0.66479,-0.7083 -0.6478,-1.1339 -0.98389,-0.7201 0.65735,-0.6053 0.65521,-0.4925 2.68683,-1.54 0.64567,-0.484 c -0.33384,-1.2178 -0.32654,-1.2253 -0.32654,-1.2253 l -0.22126,-0.4404 -0.23402,-0.4638 0.26277,-0.5669 0.16375,-0.3564 0.29681,-0.6499 0.42544,-0.5754 0.10322,-1.1179 -0.76055,-1.0362 -0.2425,-0.988 2.16244,-0.5063 0.31374,-0.074 0.36381,-0.083 2.04545,0.3691 2.50706,-0.3734 1.88482,-0.2765 3.6803,-0.8085 2.65813,-0.9923 1.57319,-0.3149 1.04237,0.7159 0.7382,0.5052 0.95517,1.1563 0.99771,0.5616 1.54025,0.8744 0.34991,0.1988 2.20715,1.1638 0.68711,0.3605 2.4677,1.7093 1.51895,0.4436 1.59127,-0.5265 0.66265,-0.6 0.23402,-0.6222 0.27971,-0.7489 0.43187,-1.6976 0.4138,-2.8985 1.03707,-1.437 2.03369,-0.9276 1.80083,-0.505 0.52865,-1.586 1.10092,-2.2986 1.54655,-0.5915 0.79881,-0.3063 0.98395,0.079 0.79237,0.066 0.39148,0.031 0.27757,0.1276 1.42746,0.6584 2.13161,2.0168 1.02327,0.1946 3.92388,0.2105 5.43642,0.7702 4.40576,0.6914 3.6803,0.7137 0.30525,0.057 1.07221,0.5787 2.67089,0.6627 4.33017,-1.7839 0.71478,-1.4422 -0.53289,-1.5572 -0.84032,-1.855 -0.15101,-3.0975 -0.0245,-2.1986 -0.61163,-1.3584 -0.75732,-0.335 -1.03497,-0.2937 -1.47848,-0.2903 -0.334,-0.066 -1.44875,0.082 -1.10302,-0.1617 -0.66584,-0.7445 0.20956,-1.0106 0.49673,-1.271 0.56796,-1.4487 0.10419,-1.3625 -0.17443,-2.389 0.73712,-0.916 0.66268,-0.1732 0.84776,0.071 0.3925,-0.042 0.20739,-0.2064 -0.0318,-0.5968 -0.23937,-0.4722 -0.52864,-0.2606 -0.67862,-0.1989 -0.58186,-0.1989 -0.8573,-0.3893 -0.29998,-0.7904 -0.52863,0.024 -1.15516,0.2117 -0.64563,0.1196 -1.50723,-0.057 -0.82115,-1.3041 -0.20956,-1.3083 -0.64028,-0.4766 -1.77638,-0.012 -0.96258,-1.0529 -0.19251,-0.2107 -0.5861,-2.6547 0.36482,-1.3372 0.31168,-0.2606 0.88175,-0.7403 0.59885,-1.0775 0.0171,-0.4648 0.083,-2.2156 0.10419,-4.0708 -0.007,-1.6804 0,-0.8989 -0.56692,-0.6903 -1.10516,-0.4148 -0.38612,-0.3521 -0.23397,-0.9849 0.22334,-1.5903 0.13724,-0.4223 0.27018,-0.8371 -0.25635,-0.7328 -0.16806,-0.484 -0.14257,-0.869 0.11065,-0.3032 0.41373,-1.1552 1.15303,-1.5189 -0.0127,-0.4648 0.005,-1.0137 -0.20956,-0.5563 -0.61377,-0.2978 -0.44139,0.3563 -0.51591,0.6243 -0.2808,0.4681 -0.38715,0.6297 -0.27551,0.3275 -0.43824,0.2905 -0.55844,-0.021 -0.51583,-0.2607 -0.28298,-0.319 -0.21485,-0.4511 -0.3138,-1.2754 0.28722,-0.6668 0.52119,-0.6957 0.57972,-0.5552 0.56797,-0.2478 0.59885,-0.1787 0.55629,-0.2394 -0.25422,-0.5721 0.0734,-0.9722 0.0489,-0.6297 0.33612,-1.6892 0.58926,-0.9201 1.06159,-0.3425 0.51371,0 1.97315,-0.012 0.94237,-0.1361 0.81054,-1.1138 -0.12335,-1.0849 -0.67973,-0.5924 -2.24114,-0.5095 -2.43048,-0.7329 -2.19224,-2.5422 -1.2009,-1.9252 -0.10955,-1.2966 0.0128,-2.8986 -0.59884,-1.6603 -1.152,-1.8998 -0.12656,-1.7603 -0.0627,-0.9691 -0.12655,-1.0839 -0.0489,-0.4223 -0.15848,-1.9464 0.17765,-1.37 0.29249,-0.5765 0.42333,-0.7787 0.61904,-0.5871 0.82121,-0.7828 0.7541,-0.6829 0.54884,-0.5595 0.71801,-0.617 0.59247,-0.7945 0.19676,-0.8414 0.005,-0.3478 0.005,-0.6743 -0.48502,-2.0668 -0.16273,-0.2117 -1.06687,-1.4019 -0.53822,-0.6021 -0.93074,-0.786 -0.90304,-0.6498 -0.94026,-0.5137 -1.03606,-0.6542 -1.31999,-1.0435 -0.9158,-1.1924 -0.31701,-1.3083 0.1936,-0.7403 0.68608,-0.6542 0.67755,-0.3808 1.03708,-0.2979 0.47331,-0.1702 0.26702,-0.7786 -0.117,-0.7243 0.0171,-0.2032 -0.2138,-1.3084 -1.46896,-0.4955 -2.02199,0.1361 -0.82861,-0.2116 -0.86476,-0.2192 -1.59976,-1.6817 -5.47581,-6.799 -0.18722,-0.2318 -1.10087,-1.6403 -0.11175,-1.8581 -0.0171,-0.2947 0.10418,-0.7488 0.0489,-0.3489 -0.17554,-0.2106 -0.68389,-0.8201 -0.46592,-0.5511 -0.55738,-2.19 -1.24872,-1.6476 -0.2436,-0.1287 -1.07538,-0.5669 -0.80519,-0.4223 -0.51165,-0.2691 -0.17019,-0.2031 -0.23612,-0.2809 -0.39038,-0.4648 -2.055,-1.4902 -1.39554,-1.1307 -0.72115,-0.5829 -0.40311,-0.3276 -0.69779,-0.3489 0.19783,-0.7243 1.18599,-0.4308 1.94863,0 2.15821,0.09 0.96475,-0.3691 0.85732,-2.8198 0.30633,-2.1944 0.21276,-1.9049 0.72755,-1.0552 2.04437,-0.2851 1.99438,-0.5839 0.65732,-1.0562 -0.19462,-1.2754 -0.9956,-1.1839 -0.45522,-0.5435 -0.87333,-1.0424 0.15423,-1.0978 0.88394,-1.1881 1.31577,-1.3913 0.96367,-1.0189 0.40207,-0.5586 0.20209,-1.0889 0.0415,-0.2234 0.0883,-1.1765 -0.39357,-1.5115 -0.0627,-1.1137 0.77752,-0.6786 1.10837,-0.2819 2.41559,0.633 2.48691,0.6382 3.62175,0.953 4.23769,0.4883 0.73609,-0.7159 0.67221,-0.651 0.12873,-0.7286 0.73603,-1.1095 1.23919,-0.9402 1.11576,-0.282 3.81222,1.5786 3.54098,1.254 0.49249,0.2277 2.46028,1.1307 2.19648,1.6721 0.72116,1.0274 1.29343,2.9315 1.654,4.0707 0.47229,1.1679 1.74653,0.8903 1.17536,0.2106 1.11577,0.2032 1.67427,0 0.86688,0.07 0.99772,0.2362 0.45948,0.6339 0.17231,0.4468 0.24572,0.6296 0.56056,1.1638 1.13707,0.319 1.069,0.2437 1.31046,-0.038 1.72738,-0.6702 0.85414,-0.451 0.58926,-0.3149 0.3223,0.066 0.89347,0.1872 1.59339,0.9563 2.2486,0.9403 2.44008,0.3638 4.29194,-0.071 1.24659,-0.111 0.66266,-0.9808 0.685,-1.2051 0.63288,-0.7414 0.25531,-0.2978 0.81903,-0.2234 1.34021,0.4914 1.21473,0.2574 1.34233,-0.401 0.95201,-1.7731 0.4829,-1.0308 1.00092,-0.9934 2.06033,-0.2617 1.92206,-0.3468 2.05821,-1.8965 0.96367,-1.0318 1.05941,-2.9517 0.94988,-1.6975 1.73909,-0.734 2.27735,-0.4393 2.2901,-1.7465 0.7254,-0.8733 0.8254,-0.9946 1.97314,-2.4964 2.48262,-4.0824 0.60836,-1.8806 -0.43078,-1.7965 -0.0543,-1.6816 0.43612,-0.2734 0.49247,0.2531 0.80841,0.1819 0.83498,-0.1319 1.00409,-0.8498 1.20835,0.3233 0.81794,0.074 1.32958,-1.0265 0.77224,-0.5595 1.84229,-0.9765 0.2138,-0.087 -0.24147,-0.7595 0.19786,-1.0306 0.61375,-0.6043 0.77219,0.1074 0.26806,0.4425 0.37974,0.3521 0.99559,-0.7446 0.98921,-0.6382 0.30634,0.029 0.66054,0.4191 1.95822,0.2531 2.77937,0.055 0.88709,-0.6509 0.5329,-1.3126 -0.40525,-1.1925 -0.94879,-1.9794 0.0244,-1.3614 0.60103,-2.0412 1.21363,-0.8286 0.63604,-0.6244 0.12341,-0.8787 -0.37441,-1.1912 -0.34037,-1.0808 0.17443,-1.8721 0.21167,-0.6902 0.38292,-1.2477 0.96688,-1.4786 -0.117,-0.9562 -0.74245,-0.9116 -2.37735,-0.021 -4.73758,-0.2445 -1.45403,0.074 -0.82861,-1.1294 0.005,-1.151 0.51371,-1.1062 -0.61049,-1.2125 -1.22322,-0.2245 -0.51378,1.1062 -0.70417,0.8818 -1.43487,-0.1373 -0.45528,-0.6743 0.011,-1.2583 -0.0638,-0.4223 0.085,-0.936 -0.30524,-1.1839 -3.21974,-1.036 -0.48933,-0.2978 -1.76782,-1.0691 -2.29751,-2.1029 -2.80066,-1.0977 0.01,-1.2583 -0.44146,-0.8774 -1.99863,-1.9678 -0.59987,-1.42 -0.52439,-2.253 0.68287,-4.1313 0.13081,-1.4582 -0.59884,-0.2649 -0.98497,0.5424 -0.77648,-0.5967 0.0564,-0.6244 1.54449,-2.1697 0.89985,-0.551 1.19026,-0.7244 0.72221,-0.8328 0.20531,-0.2362 1.14235,0 0.22449,-0.2191 1.25617,-1.2168 0.22656,-1.3424 -0.10212,-1.1627 -1.24665,-1.1636 -0.33819,-0.3606 -1.27431,-1.3625 -0.61905,-1.2137 -0.59139,-0.3681 -1.07007,0.3224 -0.9573,0.2275 -1.3328,-0.2275 -1.14447,0 -3.01982,1.1965 -0.50626,-0.1488 -0.52761,-1.0967 -0.25525,-1.8062 -0.36804,-0.5573 -1.10837,-0.4149 -1.15195,0.1037 -1.01474,-0.2989 -0.15103,-0.6412 -0.43083,-0.584 -0.31482,-0.4265 -1.11791,-0.3096 -0.57227,-0.5765 -0.53186,-0.5467 -0.53288,-0.3882 -1.29557,0.5169 -1.19555,0.435 -0.41693,0.1532 -1.32535,-0.3276 -0.41695,-1.1882 -0.28722,-1.4954 -0.65946,-0.7915 -0.29249,-0.2351 -0.83608,0.1819 -0.54564,0.1159 -2.36667,-0.3104 -1.83164,-1.735 -1.15305,-1.1477 -1.15302,0.1086 -0.54673,0.2692 -1.10515,0.7402 -2.30921,0.2245 -1.78488,0.1606 -1.51997,0.7095 -1.67101,0.065 -1.32751,-0.3234 -0.78389,0.668 -0.48503,1.051 -0.5159,-0.032 -0.5361,-0.1013 -0.4946,-0.04 -0.33081,-0.029 -0.49672,0.4213 -0.57973,0.4892 -0.46694,0.111 -1.11044,-0.4052 -1.2424,-0.1074 -0.85092,0.6126 -0.58714,0.4223 -0.14041,0.617 -0.60204,-0.4723 -0.98176,-0.7084 -0.94667,0.1287 -0.47017,-0.2032 -0.4361,-0.185 -0.80841,-0.7872 -0.25101,-0.2447 -0.77752,-0.5169 -0.29888,-0.1989 -0.67546,-0.451 -0.22335,-0.149 -0.234,0.066 -0.61906,0.1776 -0.19257,-0.057 -0.31695,-0.091 -0.16594,-0.302 -0.19676,-0.3564 -0.23615,0.2033 -0.84031,-0.3192 -0.49249,0.5478 -0.53289,-0.059 -0.13932,0.2818 -0.32337,0.4754 -0.14786,0.2192 -0.7265,-0.057 -0.28504,-0.3394 0.18717,-0.3723 0.0522,-0.82 -0.007,-0.3607 0.54036,-0.2691 0.0393,-0.4552 -0.35209,-0.3692 -0.32546,-0.2775 0.0925,-1.1595 0.0244,-0.2978 -0.18081,-0.4468 -0.15847,-0.3978 0.85306,-0.368 0.74991,-0.012 0.39886,0 0.55098,-0.2775 -0.37126,-1.0648 -0.31162,-0.3723 0.0904,-0.2276 0.34462,-0.8817 0.29888,-0.2202 0.48294,-0.351 1.06154,-0.2372 0.28292,-0.054 0.0872,-0.4222 0.0638,-0.3054 0.22333,-1.0775 0.0777,-0.9477 0.26594,-0.385 0.37228,-0.4436 0.13186,-1.5976 0.14894,-1.8263 0.66267,-2.4688 0.57864,-0.8692 0.16698,-0.3509 0.34036,-0.8743 0.0755,-0.9106 -0.0777,-0.4636 0.0702,-0.3106 0.10956,-0.4808 1.35404,-1.1508 0.0606,-0.7414 0.034,-0.3968 -0.61698,-0.8574 -0.066,-0.2361 -0.28608,-1.0551 0.40634,-2.1498 -0.05,-0.8062 0.18291,-0.7957 0.17766,-0.7828 1.49019,-1.3668 0.33188,-0.8446 0.10419,-0.2691 0.26059,-0.7744 -0.44358,-1.1924 -0.75944,-0.2977 -0.35099,-0.1372 -0.41913,-0.3723 -0.43607,-0.3893 -0.2755,-0.8243 -1.59868,-0.132 -1.2711,0.1245 -1.00838,-0.3106 -0.23825,-1.2828 0.0723,-0.9116 -0.19888,-0.4605 -1.14983,-0.1208 -0.93708,0.4062 -1.04242,0.3968 -1.47423,0.1787 -1.42217,-0.2648 -0.23402,-0.9648 0.66267,-1.1637 -0.34353,-0.7988 -0.70952,-0.1617 -1.26575,0.045 -1.23063,0.021 -1.00838,-0.385 -0.6159,-0.7745 -0.21271,-0.72 -0.23402,-0.9637 -0.23612,-0.7254 -0.17548,-0.2479 -0.44571,-0.6296 -0.79881,-0.5426 -1.58059,-0.6084 -1.33172,-0.021 -1.13816,0.2606 -1.15406,0.074 -1.17645,0.074 -0.58926,-0.2436 -2.94003,-1.2221 -5.89699,-4.5461 -1.91246,-1.4742 -1.27109,-1.0509 -2.81341,-2.3285 -2.29223,-1.8965 -1.31466,-1.3445 -2.15819,-2.2082 -2.55495,-2.6165 -0.15852,-0.9276 0.0149,-1.7221 0.17977,-2.3943 0.23718,-1.5902 -0.34888,-1.5147 -1.17644,-1.2381 -0.61904,-0.9616 0.0681,-0.9148 0.9701,-0.617 -0.28723,-2.3143 -0.56055,-1.7594 -0.18718,-0.1457 -1.44978,-1.1265 -0.69568,-0.919 -0.30738,-1.1051 0.48504,-1.3998 0.0904,-1.1796 -0.40209,-1.7434 -1.60292,-1.7019 -1.24452,-1.1466 -0.19676,-0.9402 0.27976,-1.9593 -0.66697,-1.7626 -1.28172,-0.5308 -0.6839,-0.2818 -0.36059,-0.149 -1.41259,-0.7073 -2.60705,-0.352 -0.56268,-0.066 -0.47227,-0.3149 -1.30513,-0.8711 -1.14662,-0.7404 -0.7212,-0.1488 -1.24659,-0.2563 -1.25939,-1.0106 0.0755,-1.052 0.6265,-1.2711 1.5019,-1.1679 1.49874,-2.4463 0.22656,-0.3776 0.78923,-1.6604 0.43611,-0.4926 0.43825,-0.4966 0.75095,-1.135 0.53501,-1.8083 0.87223,-1.1593 0.16382,-0.216 0.69138,-1.3211 1.17643,-2.2402 0.8041,-1.789 0.66801,-1.7975 -0.69992,-1.3701 0.31701,-1.1264 -0.30209,-0.5627 -1.76782,-1.7349 -0.68288,-0.05 -0.24784,-0.016 -0.86264,0.4468 -0.25314,0.1319 -0.93818,-0.3064 -2.87402,-0.6243 -0.97114,0.4552 -0.86688,0.8605 -0.48825,-0.284 -0.28292,-0.167 -0.86477,-0.6212 -0.81798,-0.1574 -0.43928,0.5021 -1.53168,-0.2191 -0.18724,-0.01 -1.44128,-0.451 -0.21273,-0.074 -1.39978,0.1531 -1.11153,0.1404 -0.24039,0.029 -0.36379,-0.5541 -0.10321,-0.4021 0.33607,-0.7414 0.50317,-1.1136 0.43394,-0.9563 0.90414,-1.387 -1.09666,-1.5275 -1.20084,-0.083 -2.07738,-0.936 -1.15194,-0.7414 -1.7466,-1.83482 -2.17518,-1.46467 -3.08255,-1.92526 -1.75927,-1.69761 -1.73379,-2.09543 -2.21668,-0.94029 -2.26244,-0.28187 -1.32535,-0.22338 -0.72115,-1.23384 0.47331,-1.02327 0.48823,-1.56467 0.19786,-0.62968 1.51252,-4.38126 0.81368,-2.05716 0.97435,-0.46056 0.32866,-0.12017 0.91265,-0.32762 1.3817,-4.3887 -0.11907,-2.11672 -0.54357,-1.88376 0.38721,-1.68592 2.09437,-1.04665 3.22823,0.0861 3.98238,-1.04666 0.59461,-0.75413 -0.21169,-0.80308 -0.16594,-1.46256 0.88923,-1.12536 0.0947,-0.25315 0.26058,-0.69883 0.3138,-0.84882 -0.74991,-0.8403 -1.54443,-1.02749 -0.56482,-1.03922 0.20423,-1.49126 1.12324,-0.58396 0.35524,0.0915 0.50737,0.12871 1.25834,0.32228 2.9549,0.20316 1.44657,-1.3498 0.51164,-2.42198 -0.066,-2.23689 -0.47973,-1.26259 -1.09345,-0.74883 -0.91477,-1.62848 -0.14786,-2.69108 0.12232,-1.66785 0.77224,-1.17641 2.12204,-0.74884 0.0798,-1.11047 -0.66054,-0.3808 -2.17737,-0.0372 -1.10298,-0.63393 -0.1245,-1.46149 0.59357,-1.86037 -0.0478,-0.89773 -0.58926,-1.38278 -0.19997,-0.12126 -3.10275,-1.89228 -1.46362,-1.99971 -1.21473,-2.31456 -0.45632,-3.27078 -0.45201,-1.71038 -2.51666,-1.84335 -2.50919,-1.95397 -1.59764,-0.22018 -0.0298,-1.22961 -0.0575,-2.20286 -0.0223,-0.87327 -0.0122,-0.50524 0.97648,-2.39327 3.38567,-2.23265 1.1062,-0.9307 -0.0521,-0.89882 1.34979,-1.13812 1.97629,-1.76463 0.61802,-2.19436 -0.19889,-2.02417 -1.75825,-4.477 -0.71587,-1.56892 -0.1936,-0.41908 -0.0893,-0.19785 0.11163,-1.55721 0.52125,-1.08069 0.15846,-0.32761 2.36777,-0.73288 1.19872,-0.59246 0.4255,-1.08921 -0.685,-1.718888 -1.18816,-2.76128 -0.0192,-1.3413 1.25618,-1.36682 1.12748,-1.15515 0.0766,-0.51694 0.15321,-1.03176 -0.75307,-2.39752 -0.0852,-2.01566 0.0969,-1.33385 -0.35742,-1.47425 -1.00728,-1.13387 -1.99118,-0.74244 -2.73258,-0.74032 -2.50179,-0.72435 -0.8743,0.83604 -1.65619,2.79852 -0.19038,0.3191 -1.71996,1.33704 -1.78482,0.66692 -1.14665,-0.18613 -0.66268,-0.48825 -0.49885,-1.15088 -0.0766,-2.24117 -0.0819,-2.12308 -1.2009,-2.7581 -0.84772,-1.17217 -0.80203,-0.16487 -0.95731,0.38505 -1.01791,1.27535 -1.303,0.36377 -0.69248,-0.0457 -0.5265,-0.81052 -0.13827,-1.35086 -1.59552,-0.4393 -0.26806,-0.25742 -0.6063,-0.57863 -0.47756,-1.47849 0.30422,-1.08922 0.30948,-1.10621 0.74034,-0.62543 -0.38716,-1.13814 -0.80628,-1.29981 -0.34571,-0.55948 -0.69672,-1.71784 -1.30082,-1.42426 -2.17736,-0.46802 -2.76232,-0.0659 -2.40393,-1.03495 -0.80415,-0.87753 -0.49674,-0.54354 -0.20633,-1.00517 -0.23506,-1.14345 -0.31271,-2.25286 -0.37551,-1.36255 -1.31259,-1.30833 -1.56889,-0.19359 -1.56572,0.007 -1.76358,0.22763 -2.32414,-0.14041 -1.46573,-0.75734 -0.18827,-0.117 -1.60505,-0.99348 -0.78182,-0.18614 -0.47969,-0.11163 -0.99667,-0.84029 -1.8657,0.004 -1.61996,-0.20741 -0.89347,-0.60841 -0.66268,-0.60099 -0.0809,-0.55843 0.30955,-1.21364 -0.24888,-1.57744 -1.59234,-0.64563 -1.14346,-0.40102 -2.79106,-0.16273 -1.8944,0.45206 -3.55373,2.6996 -1.97522,1.78485 -1.89972,0.56266 -0.69671,-0.26484 -0.6893,-0.26592 -0.62117,-0.52545 -0.81052,-0.86476 -0.5829,-0.42654 -1.2168,-1.32534 -1.13815,-1.06047 -0.401,-0.32974 -1.13815,-0.99029 -0.69241,-0.45525 -1.08283,-0.4478 -1.08392,0.45418 -0.0435,0.39995 -0.0978,0.5212 -0.78712,0.62863 -0.8616,0.66265 -0.64673,0.61269 -0.51055,0.36484 -0.23184,0.0122 -0.30209,0.05 -1.69975,0.28931 -1.60723,-0.41802 -1.75932,0.12765 -2.02842,0.7871 -0.76691,1.18387 -0.43186,1.42958 -0.46058,0.45526 -1.1466,1.13386 -0.73608,0.62971 -0.28292,0.87752 -0.54781,1.42001 -0.96688,0.62118 -0.61056,0.52651 -0.0393,0.66587 0.0606,1.0073 -0.85731,0.73712 -1.86356,0.016 -0.88601,-0.0446 -0.39036,-0.0212 0.083,-1.48701 -0.70418,-2.00396 -0.79347,-0.37655 -1.42,0.37655 -0.4829,0.31059 -0.27975,0.21167 -0.69246,0.51694 -0.82541,0.13296 -0.23187,0.0361 -1.4402,0.10004 -0.43084,0.0287 -0.28717,0.0744 -1.12961,0.30315 -0.60952,0.67437 -0.25736,0.28612 -1.22858,0.25209 -1.83377,0.37656 -1.49335,1.11471 -0.32338,0.25635 c -0.76681,1.49874 -0.78288,1.51148 -0.78288,1.51148 l -0.26695,1.13812 -0.15319,0.64141 -0.18081,0.75839 -0.55311,1.73911 c -1.20301,0.72486 -1.20835,0.74138 -1.20835,0.74138 l -2.13374,0.78606 -1.8316,1.69761 -1.79762,1.02751 -0.98817,-0.26912 -0.4999,-0.13615 -1.43916,-1.40829 -1.99014,-1.98693 -1.98478,-2.10395 -0.8967,-0.0415 -0.2627,-0.0122 -1.69551,-0.969 -1.00516,-0.47653 -0.54569,-0.2606 -0.10529,-0.26486 -0.0947,-0.26591 -0.083,-0.26804 -0.0734,-0.27337 -0.0606,-0.27337 -0.0511,-0.27868 -0.0415,-0.27655 -0.0288,-0.28187 0.31914,-1.39873 0.0702,-1.40405 -0.0606,-1.40405 0.61377,-1.63167 0.88922,-1.74656 0.45529,-1.12536 0.0415,-0.52226 0.0798,-1.04665 0.0266,-0.34464 0.10748,-1.38703 0.13615,-1.78377 0.69458,-0.6882 0.27552,-0.23613 0.66479,-0.40952 0.44353,-0.28613 0.37016,-0.21911 0.22869,-0.26059 -0.20636,-0.79458 -0.40949,-0.36058 -0.57973,-0.47227 -0.085,-0.39356 -0.0522,-0.23613 0.13403,-1.06367 1.49128,-0.43931 1.91247,-0.80731 1.64551,-0.8116 0.45845,-1.12642 0.0532,-1.01793 -1.02011,-0.94454 -1.70716,-0.58822 -0.64779,-0.41377 -0.32655,-1.42 0.17232,-0.60522 0.15107,-0.52972 -0.0926,-0.76584 -1.03495,-0.68714 -3.43246,-0.92751 -4.23552,-0.95625 -3.12192,-1.80079 -2.35283,-0.21167 -0.44565,-0.0415 -2.41667,0.14891 -0.83285,0.22337 -0.38721,0.10419 -1.18386,-0.43503 -1.02112,-1.06473 -0.63287,-0.35208 -0.86156,-1.0339 -1.26685,-1.07749 -1.74126,-1.93801 -1.93158,-1.77633 -1.32965,-1.51042 -1.01258,-0.91583 -0.7297,-0.0532 -0.34778,0.37652 -0.25318,0.59247 -0.34889,0.4308 -0.47438,-0.05 -0.41168,-0.27337 -0.26271,-0.10748 -0.27547,-0.10748 -0.82331,-0.48504 -1.20406,0 -1.86782,0.97433 -1.45402,0.71159 -0.19253,0.0958 -0.73395,0.53823 -1.83165,1.34129 -2.69108,2.26561 -2.02629,1.66784 -0.30528,0.33506 -1.67315,1.28066 -1.90928,0.81902 -1.37853,0.96477 -0.98708,1.1094 0.38503,0.39782 -0.0606,1.39979 -1.0892,0.46801 -0.64246,-0.19465 -0.80945,-0.24464 -1.73379,-0.48503 -0.37973,-0.10749 -1.9997,-0.2021 -3.60054,-0.26485 -1.1594,-1.06047 -0.75521,-1.17962 0.10529,-1.18493 0.13615,-1.51574 -0.55099,-3.12081 -1.58807,-1.79868 -1.93908,-3.29526 -0.35312,-2.70066 0.52863,-1.19663 0.1787,-1.49872 -0.34676,-0.29356 -0.71372,-0.60417 -2.11458,0.29784 -3.87709,-1.1966502 -3.35163,-0.90305 -3.34843,0.30209 -4.93545,0.60096 -1.05941,0.8935002 -0.52866,1.20088 -0.67967,0.4978 -0.64034,0.0744 -0.38718,-0.18189 0.13829,-0.40206 0.23187,-0.81158 -0.0776,-0.68289 -0.29996,-0.5924702 -0.63607,-0.29357 -0.57014,-0.0915 -0.83285,0.21061 -0.63289,0.55524 -0.41163,0.4307802 -0.54141,0.96901 -0.32656,1.01048 -0.0266,0.67863 -0.0318,0.78285 0.01,0.68289 -0.0606,0.61374 -0.37974,0.56694 -0.64031,-0.0915 -1.08177,-0.82328 -0.52545,-0.29039 -0.89667,0 -0.68501,0.1159 -1.04239,0.066 -1.85825,0.12017 -1.39341,-1.01473 -0.14891,-0.62971 -0.20423,-0.86902 -1.41043,0 -0.88178,-1.4987 -1.05622,-5.0939402 -2.29223,-1.8008 -3.70263,-0.8988 -1.23493,-1.7976 -0.53821,-0.91475992 0.3861,-0.17231 -0.004,-0.004 z"
         id="path4388"
         inkscape:connector-curvature="0" />
    </clipPath>
  </defs>
  <sodipodi:namedview
     pagecolor="#ffffff"
     bordercolor="#666666"
     borderopacity="1"
     objecttolerance="10"
     gridtolerance="10"
     guidetolerance="10"
     inkscape:pageopacity="0"
     inkscape:pageshadow="2"
     inkscape:window-width="1366"
     inkscape:window-height="716"
     id="namedview22"
     showgrid="false"
     fit-margin-top="0"
     fit-margin-left="0"
     fit-margin-right="0"
     fit-margin-bottom="0"
     inkscape:zoom="1"
     inkscape:cx="123.37994"
     inkscape:cy="170.7495"
     inkscape:window-x="-8"
     inkscape:window-y="-8"
     inkscape:window-maximized="1"
     inkscape:current-layer="g3384"
     inkscape:snap-global="false" />
  <title
     id="title4">Flag of Belarus</title>
  <path
     inkscape:connector-curvature="0"
     style="fill:none;stroke:#c8313e;stroke-width:3.66000009;stroke-miterlimit:4;stroke-dasharray:none;stroke-opacity:1"
     d="m 159.58032,298.74867 -1.525,0.0167 -0.60285,0.39079 -0.60047,0.38363 -1.50594,1.0818 -3.16914,1.86336 -3.18582,0.34789 -1.65844,0.93645 -0.89832,0.92215 -1.01985,3.2025 -0.21207,1.82523 -0.19062,1.66797 0.95074,2.72117 1.17711,1.525 0.67672,0.87688 0.12867,0.83875 0.27641,2.74738 -1.06511,3.62425 -1.55122,2.30657 -2.61633,2.13976 -1.25812,0.66004 -0.7768,0.98887 -2.03492,-1.15329 -1.45113,-0.3312 -0.3884,0.98887 -0.2907,0.82445 -1.35583,-0.49325 -0.0977,-1.64652 1.26051,-2.47098 0.67672,-2.14214 -0.0953,-0.82446 -0.48372,-1.64652 -0.37171,-0.4289 -0.7077,-0.0358 -1.10087,-0.062 -0.3169,-0.019 -0.24782,0.10004 -4.11511,1.64413 -6.14051,4.05317 -3.88399,2.95707 -1.63222,1.80617 -2.74739,3.04286 -0.36457,0.40268 -2.67828,2.17552 -4.22234,0.53851 -6.06188,-0.62668 -0.84828,-0.19778 -5.230274,-1.18663 -3.061914,-1.60364 -0.307383,-0.41698 -1.877657,-2.56868 -2.766445,-1.75375 -1.665586,0.0428 -0.800625,0.80302 -1.053203,0.25495 -1.689418,0.40985 -2.1755,0.3884 -0.72914,0.13343 -2.72594,0.82445 -2.7736,0.38364 -0.23113,0.0285 -1.51785,-1.0246 -1.56313,-1.06035 -2.32324,-1.9134 -1.51547,0.0405 0.19301,1.51309 -0.67195,0.47656 -0.66481,0.46942 -0.61238,-0.0477 -2.11832,-0.17872 -0.35027,-0.1239 -0.51469,-0.18348 -1.1223,-0.39555 -0.4575,-0.14297 -0.21446,0.29547 -0.80777,1.10086 -1.17711,1.24622 -1.19379,0.49324 -0.45035,0.3598 -0.0381,0.22398 1.14375,1.21762 0.66004,0.93168 0.28355,0.40508 -0.26211,1.37488 -1.4964,0.65051 -1.6775,-0.55996 -1.8991,-2.9809 -2.00157,-1.15566 -4.84902,-0.15727 -0.22399,0.16203 -1.55121,1.10562 -2.68543,1.29625 -1.17234,-0.0548 -0.2073,-0.0122 -0.58856,-0.0285 -0.94359,-1.75137 -0.1811,-0.33597 -2.01347,-1.45828 -0.41461,-0.20493 -1.58457,-0.79109 -3.85539,-2.51386 -0.45036,-0.29309 0.44082,1.11277 0.15727,0.39793 1.27242,3.39074 0.25496,1.80856 0.0405,0.30739 0.78871,5.55195 0.48848,1.21523 0.78395,2.36613 0.0691,0.28355 0.37648,1.57981 0.32168,4.07223 0.10246,5.30413 0.16203,1.02938 0.19777,0.30739 0.81731,1.27956 1.85144,1.6227 1.0818,1.77997 0.005,2.26605 -0.20493,1.62745 -0.0691,1.942 -0.0238,1.60363 -0.0191,1.18187 0.002,0.99125 0.0143,3.67192 0.38602,3.9793 0.17633,1.83 0,0.29785 -0.002,1.7061 0.59332,0.5671 1.04129,0.54805 0.49324,1.47258 0.46465,2.64254 0.85781,4.27238 0.0453,0.23351 0.52184,3.08814 0.0834,0.49323 0.0929,0.53613 1.65129,3.96977 0.66718,1.0127 0.29071,1.15567 0.82445,2.04921 1.3868,4.90383 0.39078,1.3868 2.30418,6.92684 2.72832,8.65913 1.91101,4.7418 0.12391,0.29547 0.0858,0.21208 1.48687,3.32163 1.04844,1.13899 2.77121,1.47258 0.42414,0.35742 0.20731,0.84828 -0.39317,0.89117 -0.11914,1.36535 0.58617,2.14453 0.57664,0.98172 2.75453,2.29465 0.95313,2.00395 0.10484,0.81968 -0.42414,0.78633 0.20493,0.98649 -0.22875,0.51707 -1.18664,1.20093 -0.50278,1.06988 -0.5123,1.09133 -0.0643,0.47657 0.34789,1.3296 -0.45988,0.61715 -0.0429,0.24305 -0.14774,0.88403 -0.69578,0.54804 -0.22875,0.51469 1.04844,1.86574 0.14535,1.16043 0.56949,0.43844 1.03176,0.29785 0.3741,0.61 -0.25973,1.027 0.80301,0.50515 0.29547,0.71961 0.3741,0.91262 1.06512,2.16835 0.15012,1.19856 0.81015,6.54797 0.5409,2.65922 -1.3034,2.02539 -0.0739,0.67911 -0.54328,4.93956 -0.0953,0.87687 -0.22637,5.81407 -0.1382,3.5361 -0.0143,0.37171 -0.0691,3.26922 -0.0929,4.6298 -0.10722,5.10875 -0.0691,10.34142 -20.71141,6.13335 -0.28594,0.0787 -3.54562,0.97695 -0.4718,0.15012 -6.71953,2.15407 -1.61317,0.44081 -1.85144,0.84114 -2.32563,1.63223 -0.55519,0.29308 -3.13817,1.64892 -4.12941,3.77198 -3.56231,5.21598 -0.95074,1.40109 -1.28672,1.79188 -0.63859,0.89117 -2.24461,3.71003 -1.54883,2.13262 -0.9984,3.02141 -0.47179,1.43684 -0.68625,2.33992 -0.5408999,1.85144 -1.47258,4.20329 -0.71246,1.21523 -2.69496,4.6179 -2.32325,5.60237 0.92454,0.5433 0.25257,0.23589 1.51547,0.57664 0.20492,0.40507 -0.44082,0.9984 0.01,0.51231 0.59809,0.60047 -0.0215,0.58141 -0.79824,1.20808 -0.33359,1.23668 0.55043,1.6632 0.69816,0.7363 1.37012,0.0428 2.16836,0.7768 1.6703499,0.30977 1.10801,-0.0525 1.08656,-0.5266 1.05797,-0.12391 0.33598,0.4718 -0.80301,0.86496 0.0715,0.47657 2.02539,-0.0334 1.43922,0.28117 0.41223,-0.8602 0.2907,-0.14058 0.60047,0.87688 -0.12391,0.34312 0.55758,0.15726 0.35266,-0.38125 0.42414,0.031 0.0191,1.22477 0.55996,0.4027 0.78156,-0.11676 0.67434,-0.6243 0.16679,0.20254 -0.12152,0.5123 0.69101,0.36457 0.0715,0.37887 -0.47179,1.16758 0.26925,0.57425 0.68625,0.15727 0.67434,-0.65765 0.22875,0 0.4432,1.25336 0.68864,0.16202 1.59886,-1.93722 1.1795,0.25734 -0.0357,0.29786 -0.0524,0.41699 0.53136,0.60523 0.74821,-0.0453 0.83636,-0.89831 0.58141,0.062 0.26687,0.0285 0.82446,0.53375 0.0405,0.64575 -1.07703,-0.0882 0.01,0.61715 -0.61,0.51707 0.21683,1.637 0.46703,0.67433 0.49086,0.30262 0.58856,0.0262 0.45273,-0.28356 0.26211,0.20254 0.10485,0.57664 -0.27879,0.89356 0.26211,0.1668 0.42176,-0.10724 0.33836,0.915 0.51945,-0.0738 0.91023,-0.0834 0.33598,0.6791 0.12629,0.81968 0.60762,0.28595 0.35265,0.19062 0.50278,0.26926 1.07703,0.21922 1.01508,0.12151 0.65527,0.15965 0.79348,0.76965 0.26449,0.33598 0.43605,0.87449 0.13344,0.27163 0.56234,0.87212 0.53614,0.57901 0.18586,0.1406 0.498,0.36695 0.83161,0.62668 0.5266,0.29785 0.18824,0.25734 0.0548,0.69817 0.0429,0.51945 0.14773,1.90863 0.17156,0.64813 -0.0905,0.64812 0.43368,0.84828 0.28832,2.76169 -0.28356,0.44796 0.23113,0.50277 0.95075,0.91263 0.43605,0.88164 0.91262,0.29785 0.36219,0.57663 -0.53852,1.2343 -0.86734,0.72438 -0.55043,0.14297 -0.35028,0.65527 0.40508,1.1509 -0.12629,0.61715 -0.35265,0.38125 -0.35743,-0.26926 -0.77918,0.0787 -0.89117,1.54643 -0.93883,-0.0548 -0.2907,0.20493 0.23113,0.34074 0.81254,0.33121 0.23352,0.40508 0.305,1.15566 -0.12152,0.65051 -0.71008,0.14774 -0.43606,1.57503 -0.61953,-0.26687 -0.55043,0.0429 -0.23113,0.36695 -0.24543,0.39078 0.82207,1.11278 -0.28117,0.79109 0.33121,0.57664 0.87687,0.25973 0.45989,0.43367 0.005,0.41223 -1.02461,1.07226 0.63859,1.83477 -0.3884,0.0738 -0.97933,-0.50038 -0.3884,0 -0.35266,0.2764 -0.0882,0.78633 0.30977,1.4273 0.39316,0.47419 0.0405,0.40984 -0.24305,1.26527 -0.86972,0.49087 -0.25496,0.41222 0.16441,0.20253 0.65051,0.0905 -0.41461,0.71247 -0.12629,0.21921 1.49164,0.18347 0.42414,0.43845 0.0429,0.61475 0.69816,1.62985 0.40985,1.8014 -0.66242,1.40825 -0.11676,1.09133 -0.0619,0.20731 -0.55043,-0.0285 -0.56711,1.20093 -0.48132,0.28118 -0.68149,-0.12868 -0.70769,1.3034 -0.20731,0.38125 -1.50832,0.8745 -1.32961,-0.3884 -1.27242,1.68942 -0.80063,0.35026 -0.34789,0.55282 -0.13582,1.84668 -0.193,0.2073 0.55757,0.63622 -0.0262,0.4432 0.42176,0.19777 0.41223,-0.68625 0.6648,1.42493 0.0334,0.27402 -0.25496,0.30976 0.30023,0.60762 -0.38125,0.41461 0.19778,0.15727 0.48609,0.38125 0.005,0.40984 -0.8173,1.75136 0.16679,0.40747 0.74582,0.12628 0.13106,0.26927 -0.28832,0.15011 -0.19063,0.093 -0.11675,0.95788 0.23828,1.08895 -0.21922,0.41461 -0.70769,0.21445 -0.40985,0.65527 0.20016,0.71247 -0.27164,0.4027 -0.29785,0.39077 0.91738,1.07703 -0.43844,1.10087 0.30738,0.94836 0.0786,1.29625 -0.39078,2.05397 0.16918,0.71723 0.5266,0.80777 0.27403,1.4988 0.84828,0.73628 0.34551,1.87528 0.78871,1.35344 -0.55758,0.99125 -0.19778,0.34789 0.18348,1.70371 0.58856,0.64336 0.80539,0.32644 0.71246,-0.55519 0.76726,0.70531 0.90071,0.0595 0.29546,0.50753 -0.0906,0.4432 0.72438,1.28673 -0.33598,1.54167 0.42891,0.98172 0.2907,0.29786 0.002,0 3.27875,-1.15805 1.32723,-1.637 0.46465,-2.9237 -1.57981,-2.42333 -1.29386,-1.19617 -0.67911,-0.62906 -0.59093,-1.43684 1.57027,-2.66636 0.24305,-1.17235 -1.02461,-2.14929 -0.44559,-1.14613 0.37887,-1.17473 3.37883,-2.00157 1.92054,-1.11992 2.54247,-1.48688 2.46382,-0.36933 1.88004,0.92453 1.0675,2.4972 1.64891,1.81093 1.25812,-1.81093 1.16282,-0.49563 1.66082,-0.64812 0.68386,-0.33837 0.49801,0.093 0.91262,0.33121 1.30578,0.47655 1.38203,0.85544 0.85305,0.53613 0.17871,1.5941 -0.63383,2.19696 0.46227,1.87527 1.39871,1.12707 2.62586,0.65051 1.62031,0.27164 0.50754,0.0835 19.570038,-10.95617 4.513046,-6.4622 5.704461,-6.46456 2.85222,-6.46219 1.18665,-8.48281 0.23828,-7.27235 0.47656,-4.44394 4.03887,-1.21285 6.17863,0.80777 6.6552,0 6.17625,0.40508 2.85223,2.82602 4.7537,-1.21048 2.13977,-2.02062 20.26583,1.11515 0.25733,-0.0122 2.20887,-0.31692 0.44558,-0.4146 0,-330.29118 -0.44558,-0.0643 -0.49085,-0.0715 -0.60047,-0.47657 -0.32645,-0.25734 -0.83875,-0.66719 -0.68863,-0.5409 -0.67195,-0.60523 -1.32485,-1.1938 z"
     id="rect10-8" />
  <g
     id="g3384"
     clip-path="url(#clipPath4386)"
     transform="translate(2.3006751,0)">
    <path
       style="fill:#c8313e"
       d="m 162.39933,0 0,488 1300.95467,0 0,-488 -1300.95467,0 z"
       id="rect6"
       inkscape:connector-curvature="0" />
    <rect
       style="fill:#4aa657"
       x="162.39932"
       id="rect8"
       height="244"
       width="1464"
       y="488.00003" />
    <rect
       style="fill:#ffffff"
       y="4.7412109e-006"
       x="0"
       id="rect10"
       height="732"
       width="162.66667" />
    <g
       id="use20"
       transform="matrix(1.3333334,0,0,-1.3333334,0.99332499,732.00002)">
      <g
         id="g4366"
         transform="scale(5.3043478,9)"
         style="fill:#c8313e;fill-rule:evenodd">
        <path
           d="m 4,0 3,0 0,1 1,0 0,1 1,0 0,1 1,0 0,1 1,0 0,1 -1,0 0,1 L 9,6 9,7 8,7 8,8 7,8 7,9 6,9 6,10 5,10 5,9 4,9 4,8 3,8 3,7 2,7 2,6 1,6 1,5 0,5 0,4 1,4 1,3 2,3 2,2 3,2 3,1 4,1 Z M 5,2 6,2 6,3 7,3 7,4 8,4 8,5 7,5 7,6 6,6 6,7 5,7 5,6 4,6 4,5 3,5 3,4 4,4 4,3 5,3 Z M 5,4 6,4 6,5 5,5 Z M 0,1 1,1 1,2 0,2 Z M 0,7 1,7 1,8 0,8 Z m 11,-7 0.6,0 0,2 -0.6,0 z m 0,7 0.6,0 0,2 -0.6,0 z m -9,2 1,0 0,1 1,0 0,1 1,0 0,1 -1,0 0,1 -1,0 0,1 -1,0 0,-1 -1,0 0,-1 -1,0 0,-1 1,0 0,-1 1,0 z m 0,2 1,0 0,1 -1,0 z m 6,-2 1,0 0,1 1,0 0,1 1,0 0,1 -1,0 0,1 -1,0 0,1 -1,0 0,-1 -1,0 0,-1 -1,0 0,-1 1,0 0,-1 1,0 z m 0,2 1,0 0,1 -1,0 z m -8,4 1,0 0,1 -1,0 z m 11,-1 0.6,0 0,2 -0.6,0 z"
           id="path4368"
           inkscape:connector-curvature="0" />
        <path
           d="m 0,18 1,0 0,-1 1,0 0,-1 1,0 0,-1 1,0 0,-1 1,0 0,-1 1,0 0,1 1,0 0,1 1,0 0,1 1,0 0,1 1,0 0,1 1,0 0,1 0.6,0 0,4 -0.6,0 0,1 -1,0 0,1 -1,0 0,1 -1,0 0,1 -1,0 0,1 -1,0 0,2.6 -2,0 0,-0.6 -1,0 0,-1 -1,0 0,-1 -1,0 0,-1 -1,0 0,-3 1,0 0,1 1,0 0,1 1,0 0,1 1,0 0,-1 1,0 0,-1 1,0 0,-1 1,0 0,-1 1,0 0,-1 1,0 0,-1 -1,0 0,-1 -1,0 0,-1 -3,0 0,1 2,0 0,1 -1,0 0,1 -1,0 0,1 -1,0 0,-1 -1,0 0,-1 -1,0 0,-1 -1,0 z m 0,4 1,0 0,1 -1,0 z m 11,3 0.6,0 0,1 -0.6,0 z m -2,2 1,0 0,1 1,0 0,1 0.6,0 0,1.6 -0.6,0 0,-0.6 -1,0 0,-1 -1,0 z m -2,3 1,0 0,0.6 -1,0 z"
           id="path4370"
           inkscape:connector-curvature="0" />
      </g>
      <g
         id="use4372"
         transform="matrix(-5.3043478,0,0,9,122,0)"
         style="fill:#c8313e;fill-rule:evenodd">
        <path
           d="m 4,0 3,0 0,1 1,0 0,1 1,0 0,1 1,0 0,1 1,0 0,1 -1,0 0,1 L 9,6 9,7 8,7 8,8 7,8 7,9 6,9 6,10 5,10 5,9 4,9 4,8 3,8 3,7 2,7 2,6 1,6 1,5 0,5 0,4 1,4 1,3 2,3 2,2 3,2 3,1 4,1 Z M 5,2 6,2 6,3 7,3 7,4 8,4 8,5 7,5 7,6 6,6 6,7 5,7 5,6 4,6 4,5 3,5 3,4 4,4 4,3 5,3 Z M 5,4 6,4 6,5 5,5 Z M 0,1 1,1 1,2 0,2 Z M 0,7 1,7 1,8 0,8 Z m 11,-7 0.6,0 0,2 -0.6,0 z m 0,7 0.6,0 0,2 -0.6,0 z m -9,2 1,0 0,1 1,0 0,1 1,0 0,1 -1,0 0,1 -1,0 0,1 -1,0 0,-1 -1,0 0,-1 -1,0 0,-1 1,0 0,-1 1,0 z m 0,2 1,0 0,1 -1,0 z m 6,-2 1,0 0,1 1,0 0,1 1,0 0,1 -1,0 0,1 -1,0 0,1 -1,0 0,-1 -1,0 0,-1 -1,0 0,-1 1,0 0,-1 1,0 z m 0,2 1,0 0,1 -1,0 z m -8,4 1,0 0,1 -1,0 z m 11,-1 0.6,0 0,2 -0.6,0 z"
           id="path4382"
           inkscape:connector-curvature="0" />
        <path
           d="m 0,18 1,0 0,-1 1,0 0,-1 1,0 0,-1 1,0 0,-1 1,0 0,-1 1,0 0,1 1,0 0,1 1,0 0,1 1,0 0,1 1,0 0,1 1,0 0,1 0.6,0 0,4 -0.6,0 0,1 -1,0 0,1 -1,0 0,1 -1,0 0,1 -1,0 0,1 -1,0 0,2.6 -2,0 0,-0.6 -1,0 0,-1 -1,0 0,-1 -1,0 0,-1 -1,0 0,-3 1,0 0,1 1,0 0,1 1,0 0,1 1,0 0,-1 1,0 0,-1 1,0 0,-1 1,0 0,-1 1,0 0,-1 1,0 0,-1 -1,0 0,-1 -1,0 0,-1 -3,0 0,1 2,0 0,1 -1,0 0,1 -1,0 0,1 -1,0 0,-1 -1,0 0,-1 -1,0 0,-1 -1,0 z m 0,4 1,0 0,1 -1,0 z m 11,3 0.6,0 0,1 -0.6,0 z m -2,2 1,0 0,1 1,0 0,1 0.6,0 0,1.6 -0.6,0 0,-0.6 -1,0 0,-1 -1,0 z m -2,3 1,0 0,0.6 -1,0 z"
           id="path4384"
           inkscape:connector-curvature="0" />
      </g>
    </g>
    <g
       transform="matrix(1.3333334,0,0,1.3333334,0.99332499,4.7214569e-4)"
       id="h-5">
      <g
         style="fill:#c8313e;fill-rule:evenodd"
         transform="scale(5.3043478,9)"
         id="q-3">
        <path
           inkscape:connector-curvature="0"
           id="path16-7"
           d="m 0,18 1,0 0,-1 1,0 0,-1 1,0 0,-1 1,0 0,-1 1,0 0,-1 1,0 0,1 1,0 0,1 1,0 0,1 1,0 0,1 1,0 0,1 1,0 0,1 0.6,0 0,4 -0.6,0 0,1 -1,0 0,1 -1,0 0,1 -1,0 0,1 -1,0 0,1 -1,0 0,2.6 -2,0 0,-0.6 -1,0 0,-1 -1,0 0,-1 -1,0 0,-1 -1,0 0,-3 1,0 0,1 1,0 0,1 1,0 0,1 1,0 0,-1 1,0 0,-1 1,0 0,-1 1,0 0,-1 1,0 0,-1 1,0 0,-1 -1,0 0,-1 -1,0 0,-1 -3,0 0,1 2,0 0,1 -1,0 0,1 -1,0 0,1 -1,0 0,-1 -1,0 0,-1 -1,0 0,-1 -1,0 z m 0,4 1,0 0,1 -1,0 z m 11,3 0.6,0 0,1 -0.6,0 z m -2,2 1,0 0,1 1,0 0,1 0.6,0 0,1.6 -0.6,0 0,-0.6 -1,0 0,-1 -1,0 z m -2,3 1,0 0,0.6 -1,0 z" />
      </g>
      <use
         height="100%"
         width="100%"
         y="0"
         x="0"
         id="use18-7"
         transform="matrix(-1,0,0,1,122,0)"
         xlink:href="#q-3" />
    </g>
  </g>
</svg>
